<svg width="NaN" height="NaN" xmlns="http://www.w3.org/2000/svg" version="1.1">

 <g>
  <title>Layer 1</title>
  <g stroke="null" id="svgg">
   <path stroke="null" fill-rule="evenodd" fill="#1c1a1b" d="m1054.4,35.86844c-5.419,1.18009 -5.549,1.53381 -5.8,15.74772c-0.235,13.35197 -0.121,13.03382 -3.841,10.65129c-5.731,-3.67037 -9.217,-5.96143 -9.951,-6.54283c-6.399,-5.06289 -15.324,2.78098 -10.697,9.40106c0.667,0.95545 5.806,5.03342 6.341,5.03342c0.146,0 1.274,0.66882 2.507,1.48604c1.232,0.81722 3.411,2.24938 4.841,3.18248c1.43,0.93309 3.907,2.55635 5.505,3.60837c1.598,1.051 3.326,2.07456 3.84,2.27276c2.085,0.80604 2.2,23.1962 0.12,23.1962c-0.443,0 -5.813,-3.40203 -10.975,-6.95246c-6.501,-4.47234 -12.89,-1.87025 -12.89,5.2489c0,3.47928 1.184,4.46116 19.6,16.26306c5.919,3.79234 5.489,2.77793 5.551,13.0877c0.068,11.30181 1.415,13.76769 7.285,13.33571c5.113,-0.37608 5.941,-2.43539 5.954,-14.81666l0.01,-8.59706l2.9,-1.95157c1.595,-1.07336 3.575,-2.37339 4.4,-2.88873c2.048,-1.28072 3.811,-2.42116 8.511,-5.50098c2.206,-1.4464 4.456,-2.86433 5,-3.15198c6.877,-3.62768 5.044,-14.24034 -2.46,-14.24034c-1.414,0 -5.136,1.6446 -5.935,2.62343c-0.283,0.34661 -0.667,0.62918 -0.855,0.62918c-0.187,0 -2.386,1.36101 -4.885,3.02493c-5.315,3.53722 -6.547,4.01189 -6.744,2.60107c-0.072,-0.52245 -0.081,-5.65853 -0.019,-11.41362l0.113,-10.46324l2.487,-1.73405c3.305,-2.30529 6.547,-4.42558 13.287,-8.6926c8.268,-5.23467 9.309,-6.49811 8.902,-10.80477c-0.554,-5.86588 -6.235,-7.8703 -12.058,-4.25584c-6.953,4.31479 -8.456,5.28143 -8.644,5.55688c-0.212,0.31001 -3.417,2.02882 -3.784,2.02882c-0.119,0 -0.216,-4.8037 -0.216,-10.67568c0,-11.23574 -0.15,-12.54695 -1.636,-14.28405c-0.681,-0.79587 -4.712,-2.62039 -4.937,-2.23414c-0.015,0.02643 -0.387,0.12604 -0.827,0.22158m92.783,52.53781c-4.162,1.92209 -5.227,6.9301 -3.18,14.95795c0.295,1.15569 0.658,3.62565 0.807,5.48878c0.148,1.86212 0.517,4.30158 0.82,5.41966c0.866,3.20179 1.286,7.76764 0.795,8.655c-0.343,0.62105 -6.756,6.6953 -9.952,9.42647c-0.4,0.34152 -1.3,1.1435 -2,1.7808c-4.015,3.65919 -5.073,3.74559 -5.073,0.41572c0,-0.72574 -0.193,-1.83468 -0.43,-2.46385c-0.236,-0.62918 -0.686,-3.24245 -1,-5.80794c-0.905,-7.39664 -1.735,-9.12967 -5.066,-10.58623c-6.387,-2.79318 -10.88,2.77387 -9.094,11.26522c0.226,1.07336 0.667,3.78116 0.981,6.01733c0.313,2.23617 0.934,6.44424 1.38,9.35126c1.201,7.82761 1.538,6.97584 -4.981,12.60387c-1.295,1.11809 -3.615,3.24651 -5.156,4.7295l-2.801,2.69662l0.026,2.97919l0.027,2.97919l1.896,1.74421c2.71,2.49435 7.031,2.45369 9.218,-0.0864c0.22,-0.25614 1.66,-1.56837 3.2,-2.91719c1.54,-1.34882 3.7,-3.31157 4.8,-4.36155c3.326,-3.17638 4.283,-3.51892 7.4,-2.64885c1.43,0.39946 3.886,1.08149 5.458,1.51653c1.573,0.43504 3.038,0.9026 3.258,1.04084c0.219,0.13722 1.543,0.51229 2.941,0.83348c1.399,0.32018 4.689,1.22989 7.311,2.0217c6.171,1.86314 7.689,1.60394 10.42,-1.77471c1.863,-2.30427 2.195,-4.77829 0.956,-7.12627c-1.493,-2.83079 -2.697,-3.53417 -9.344,-5.45321c-11.571,-3.34206 -11.52,-3.31563 -9.646,-5.06798c3.098,-2.89787 7.799,-7.12525 10.627,-9.55861c1.661,-1.4281 3.163,-2.84604 3.339,-3.15097c0.473,-0.81925 4.301,-0.69626 6.863,0.21853c1.19,0.42487 2.941,0.90463 3.89,1.06523c0.95,0.15958 2.177,0.52245 2.727,0.80502c0.55,0.28257 1.81,0.64747 2.8,0.8101c0.99,0.16365 2.555,0.64239 3.478,1.06421c0.923,0.42284 2.042,0.76843 2.486,0.76843c0.444,0 1.652,0.29172 2.685,0.64747c6.364,2.19653 11.605,-2.29309 9.86,-8.44561c-0.963,-3.39491 -4.483,-5.3353 -13.564,-7.47592c-2.487,-0.58649 -6.145,-2.00239 -6.145,-2.37949c0,-0.28664 1.368,-1.62834 5.424,-5.31802c1.967,-1.78894 3.666,-3.34511 3.776,-3.45793c0.11,-0.11282 1.766,-1.63647 3.68,-3.38577c3.132,-2.86331 3.507,-3.36035 3.745,-4.97548c1.183,-8.01464 -6.234,-10.88812 -12.628,-4.89213c-13.62,12.7726 -14.473,13.38246 -14.94,10.68686c-0.123,-0.71151 -0.389,-2.20873 -0.592,-3.32681c-0.203,-1.11809 -0.664,-4.13692 -1.025,-6.70851c-1.03,-7.33972 -2.369,-9.87269 -5.766,-10.90743c-2.091,-0.63629 -2.781,-0.59462 -4.691,0.28765m-192.116,1.73405c-2.196,1.10487 -3.584,3.22923 -4.063,6.21655c-0.206,1.28783 -0.468,2.64376 -0.581,3.01375c-0.114,0.36897 -0.469,2.7078 -0.789,5.19503c-1.008,7.83981 -1.602,8.52388 -4.768,5.49183c-1.136,-1.08861 -2.786,-2.59497 -3.666,-3.34612c-0.88,-0.75217 -3.514,-3.13674 -5.854,-5.29972c-5.937,-5.48878 -10.446,-6.3243 -13.037,-2.4171c-2.711,4.08914 -2.005,6.69631 3.073,11.35771c6.486,5.9533 9.666,8.78612 10.232,9.11239c0.298,0.17178 0.924,0.85788 1.391,1.52365l0.849,1.2116l-1.127,0.43707c-1.748,0.67695 -8.839,2.79928 -11.72,3.50774c-5.528,1.36 -8.214,4.79862 -7.218,9.23843c1.129,5.03138 5.363,6.53877 12.211,4.34529c3.146,-1.00831 7.045,-2.14977 11.2,-3.28209c1.54,-0.41979 3.52,-1.03169 4.4,-1.36c3.436,-1.28478 5.445,-1.26953 7.206,0.05184c4.002,3.0046 15.065,13.47598 14.869,14.07364c-0.135,0.41369 -5.198,2.18941 -6.373,2.23515c-0.661,0.02643 -2.259,0.51229 -8.302,2.52586c-5.555,1.85094 -7.53,6.49099 -4.648,10.91759c2.16,3.31766 4.915,3.84926 10.848,2.09387c7.948,-2.35001 14.53,-4.26092 18.47,-5.36071c3.141,-0.87719 3.992,-0.74708 5.785,0.88532c0.58,0.52753 1.75,1.57853 2.6,2.33578c0.85,0.75725 2.355,2.13554 3.345,3.06355c0.99,0.92699 2.874,2.56753 4.186,3.64496l2.386,1.95868l2.775,-0.15958c3.957,-0.22768 5.85,-2.3246 5.852,-6.48388l0.001,-2.69967l-2.116,-2.17925c-1.164,-1.1994 -2.74,-2.72914 -3.502,-3.4c-0.763,-0.67085 -2.89,-2.58989 -4.727,-4.26499l-3.342,-3.04526l0.276,-3.25668c0.151,-1.79097 0.513,-4.62887 0.804,-6.306c0.291,-1.67713 0.744,-4.513 1.007,-6.30193c0.263,-1.78894 0.73,-4.69088 1.039,-6.4483c1.207,-6.87521 0.336,-9.84728 -3.409,-11.63012c-5.886,-2.80233 -9.826,1.03372 -10.843,10.55676c-0.203,1.90074 -0.643,4.51706 -0.978,5.81404c-0.335,1.29596 -0.609,2.78302 -0.609,3.30445c0,2.40185 -2.396,1.27665 -7.297,-3.42642c-0.576,-0.55396 -3.697,-3.42236 -8.052,-7.40477c-1.89,-1.72693 -2.049,-3.462 -0.86,-9.40716c0.319,-1.59886 0.764,-4.27922 0.989,-5.95634c0.224,-1.67713 0.664,-4.54654 0.978,-6.37715c0.501,-2.93142 0.812,-7.53589 0.685,-10.15933c-0.17,-3.50164 -5.911,-5.98379 -9.576,-4.13996m60.895,44.56891c-0.308,0.2104 -0.427,6.11084 -0.4,19.90192l0.038,19.60308l5,4.93177c2.75,2.71288 7.43,7.32143 10.4,10.24166c2.97,2.91922 8.23,8.13763 11.689,11.59556c4.283,4.28227 6.484,6.21147 6.9,6.04986c0.787,-0.30697 0.936,-38.30763 0.156,-39.83026c-0.25,-0.48891 -1.555,-1.97291 -2.9,-3.29937c-4.446,-4.38391 -18.352,-18.19023 -24.066,-23.8945c-5.579,-5.56908 -5.973,-5.87503 -6.817,-5.29972m67.601,8.95281c-4.64,4.63192 -11.938,11.89846 -16.217,16.14718c-4.279,4.24872 -8,8.27383 -8.269,8.94468c-0.365,0.91378 -0.461,5.96549 -0.382,20.12553l0.105,18.9058l0.877,0c0.808,0 5.732,-4.7539 30.39,-29.33551l3.733,-3.72119l0,-19.7586l0,-19.7586l-0.9,0.01423c-0.624,0.00915 -3.491,2.60006 -9.337,8.43646m20.49,40.01932c-1.104,0.23277 -2.884,1.85094 -8.916,8.1051c-4.145,4.29853 -9.427,9.77206 -11.737,12.16477c-12.565,13.01248 -13.496,14.12345 -12.408,14.8065c0.803,0.50415 37.57,0.25716 38.527,-0.25919c0.485,-0.26123 2.231,-1.8794 3.881,-3.59515c3.062,-3.18451 27.801,-28.9706 28.689,-29.90268c1.258,-1.32137 -0.34,-1.45249 -18.641,-1.53178c-9.908,-0.04269 -18.636,0.05285 -19.395,0.21244m-135.153,0.95749c-0.81,0.83755 0.473,2.39067 10.401,12.58659c5.884,6.04478 13.12,13.51867 16.078,16.60865c2.958,3.091 5.779,5.7744 6.267,5.96244c0.488,0.18906 9.163,0.34559 19.276,0.34762c21.948,0.00407 21.319,0.14535 17.23,-3.85739c-1.35,-1.32137 -2.747,-2.76269 -3.103,-3.20382c-0.357,-0.44012 -4.716,-5.0141 -9.686,-10.16441c-4.971,-5.14929 -10.912,-11.33027 -13.202,-13.73415l-4.164,-4.3707l-17.643,0c-9.703,0 -18.432,-0.10876 -19.398,-0.24191c-0.966,-0.13315 -1.891,-0.10266 -2.056,0.06709m-35.288,4.87384c-5.299,2.02272 -6.23,7.17709 -2.358,13.04704c0.973,1.47486 2.251,3.52908 2.839,4.56382c0.588,1.03474 1.174,1.97291 1.303,2.08472c1.12,0.97375 2.733,4.25482 2.401,4.88502c-0.404,0.7664 -16.798,1.20652 -20.788,0.55803c-1.836,-0.29883 -1.286,0.3954 -7.159,-9.01685c-7.759,-12.43311 -8.908,-14.15496 -9.841,-14.74856c-3.73,-2.37136 -8.882,-0.98391 -10.442,2.81249c-1.294,3.1469 -0.265,6.62008 3.629,12.25218c0.772,1.11605 1.404,2.13046 1.404,2.25345c0,0.28155 1.543,2.5472 2.526,3.70899c0.407,0.48078 0.68,1.30409 0.607,1.82959l-0.133,0.95444l-10.566,0.11486c-11.754,0.12706 -12.403,0.25513 -14.334,2.82774c-2.024,2.69763 -1.813,5.66666 0.582,8.19252l1.971,2.07862l11.886,0c10.317,0 11.917,0.08233 12.122,0.62409c0.243,0.64341 -1.033,2.95073 -5.13,9.27807c-1.282,1.97901 -2.331,3.76286 -2.331,3.96412c0,0.20024 -0.401,0.77148 -0.892,1.27055c-1.455,1.47892 -1.538,5.91467 -0.152,8.0431c3.111,4.77931 8.863,4.39712 12.331,-0.81824c1.569,-2.36018 6.161,-9.6694 10.015,-15.94288c1.266,-2.06033 2.826,-4.34834 3.466,-5.08322l1.164,-1.3356l10.134,0.0061c12.725,0.00813 12.43,-0.20837 8.295,6.09255c-3.407,5.19096 -4.707,7.31838 -4.954,8.10713c-0.143,0.46045 -0.422,0.83755 -0.619,0.83755c-1.774,0 -1.265,6.37309 0.684,8.56555c3.53,3.97124 8.554,3.06965 11.924,-2.13961c1.057,-1.63342 2.255,-3.46606 2.663,-4.07186c0.407,-0.6058 0.741,-1.18619 0.741,-1.28885c0,-0.10368 0.814,-1.43725 1.808,-2.96496c2.437,-3.74152 2.403,-3.68765 4.022,-6.2318c0.783,-1.22989 1.754,-2.87653 2.158,-3.65919c1.67,-3.23736 1.515,-3.19366 11.946,-3.33189l9.329,-0.12401l1.339,-1.48604c3.363,-3.73136 2.052,-9.60842 -2.425,-10.87185c-0.867,-0.24496 -4.907,-0.45638 -8.977,-0.47061c-10.439,-0.03558 -10.655,-0.09961 -12.27,-3.63784c-0.285,-0.62613 -5.842,-9.35634 -8.592,-13.49834c-0.846,-1.27563 -1.538,-2.48215 -1.538,-2.68137c0,-0.20024 -0.344,-0.68 -0.763,-1.06625c-0.42,-0.38625 -0.971,-1.21058 -1.225,-1.83264c-0.904,-2.21991 -5.149,-3.66224 -7.8,-2.64986m274.388,1.34678c-1.785,1.12723 -8.6,10.79054 -8.6,12.19424c0,0.19922 -0.269,0.58954 -0.597,0.86702c-0.329,0.27749 -1.172,1.53483 -1.874,2.7942c-0.702,1.25937 -1.39,2.38152 -1.53,2.49333c-0.139,0.11181 -0.93,1.32747 -1.757,2.70068c-2.754,4.57602 -1.608,4.21112 -13.225,4.21112c-9.956,0 -11.417,-0.11181 -11.417,-0.87109c0,-0.31916 2.692,-4.74678 6.325,-10.40429c3.999,-6.2257 4.225,-9.3848 0.891,-12.44632c-4.451,-4.08711 -8.635,-2.349 -13.436,5.58229c-1.233,2.03796 -3.396,5.53554 -4.806,7.77171c-1.409,2.23617 -2.912,4.71832 -3.339,5.51623c-0.427,0.79689 -1.06,1.68933 -1.406,1.98104c-0.346,0.29172 -0.629,0.7603 -0.629,1.04084c0,1.40371 -1.216,1.62427 -10.16,1.84077c-10.404,0.25208 -11.272,0.50314 -12.881,3.72932c-1.164,2.33578 -1.195,3.34612 -0.174,5.66056c1.564,3.54738 2.34,3.78218 13.252,4.01596c5.224,0.11181 9.571,0.29477 9.66,0.40658c0.678,0.85178 2.442,3.53925 3.703,5.64226c0.44,0.73387 2.24,3.60023 4,6.37004c1.76,2.7698 4.05,6.37715 5.088,8.01667c4.761,7.5176 12.651,7.14355 13.912,-0.65967c0.42,-2.60311 -0.139,-3.9875 -4.089,-10.1329c-0.831,-1.2919 -1.511,-2.46385 -1.511,-2.60412c0,-0.13925 -0.45,-0.85279 -1,-1.58666c-0.55,-0.73285 -1,-1.49925 -1,-1.70254c0,-0.2043 -0.368,-0.70948 -0.818,-1.12317c-2.403,-2.21076 -1.564,-2.41405 10.479,-2.53094l11.061,-0.10876l1.139,1.61919c0.626,0.88939 1.859,2.82367 2.739,4.29751c0.88,1.47384 2.742,4.45404 4.138,6.6211c1.396,2.16807 2.836,4.46929 3.2,5.1127c0.364,0.64442 0.873,1.54296 1.131,1.99629c3.955,6.96161 11.371,7.53285 14.1,1.08556c1.453,-3.43354 0.578,-5.42881 -8.07,-18.40876c-1.515,-2.27378 -1.351,-2.31037 10.353,-2.31037c10.652,0 10.682,-0.00203 12.374,-1.01034c4.525,-2.6956 4.269,-9.41936 -0.441,-11.60064c-1.602,-0.74099 -2.625,-0.80604 -12.776,-0.80604c-8.916,0 -11.074,-0.10571 -11.242,-0.55091c-0.241,-0.63934 0.563,-2.10098 4.395,-7.98719c5.24,-8.0492 5.967,-10.3799 4.281,-13.73822c-1.717,-3.41931 -6.406,-4.90128 -9.443,-2.98427m-136.588,37.24037c-0.542,0.66374 -1.017,0.14535 20.723,22.61581c4.914,5.07916 9.213,9.63891 9.553,10.13188c1.618,2.349 2.252,2.4171 22.312,2.42015c10.12,0.00203 18.649,-0.15755 18.953,-0.35372c0.825,-0.53058 0.741,-0.62613 -13.563,-15.47735c-7.145,-7.41697 -14.286,-14.88985 -15.871,-16.60763l-2.88,-3.12149l-19.361,-0.11282c-16.925,-0.09859 -19.425,-0.03456 -19.866,0.50517m-69.212,1.01644c-0.77,0.42792 -5.386,4.95108 -10.258,10.0526c-4.873,5.1005 -11.938,12.45344 -15.7,16.33827c-6.769,6.98905 -7.317,7.72089 -6.342,8.46391c0.934,0.71151 36.819,0.70134 38.155,-0.01118c1.441,-0.76843 2.15,-1.46368 12.1,-11.86797c4.486,-4.69088 11.062,-11.54677 14.614,-15.23645c4.96,-5.15234 6.426,-6.91282 6.321,-7.58977l-0.137,-0.88125l-18.677,-0.02338c-17.66,-0.02135 -18.752,0.02033 -20.076,0.75522m57.3,10.20913l-0.9,0.34966l0.01,18.20751c0.005,10.01398 0.164,18.88751 0.354,19.71794c0.287,1.25632 2.016,3.16723 10.291,11.37703c5.47,5.42576 12.818,12.75125 16.329,16.27729c4.502,4.52113 6.654,6.41069 7.3,6.41069l0.916,0l0,-18.80721c0,-10.3433 -0.159,-19.37032 -0.353,-20.05845c-0.321,-1.13536 -4.464,-5.46744 -17.853,-18.66491c-1.361,-1.3417 -5.337,-5.30176 -8.834,-8.79933c-5.623,-5.62295 -6.464,-6.31921 -7.26,-6.01022m-12.561,2.30732c-1.739,1.87635 -9.116,9.22624 -23.653,23.56314c-3.9,3.84621 -7.26,7.44441 -7.466,7.99431c-0.213,0.57124 -0.363,8.85523 -0.349,19.29002c0.014,10.05972 -0.092,18.48398 -0.235,18.7198c-0.144,0.23683 0.153,0.70541 0.659,1.04287c0.897,0.59767 1.099,0.43504 7.947,-6.38528c3.865,-3.84926 11.376,-11.31909 16.692,-16.5995l9.666,-9.6013l0,-19.73014c0,-20.2719 0.003,-20.22515 -1.368,-20.22515c-0.057,0 -0.909,0.86906 -1.893,1.93124m61.003,35.31015c-2.596,1.30104 -3.142,2.32663 -3.142,5.89637l0,3.22822l2.4,2.22499c1.32,1.2238 3.39,3.16926 4.6,4.32394c1.21,1.15468 3.169,2.84299 4.352,3.75168l2.153,1.65172l-0.262,3.45692c-0.258,3.41626 -1.208,9.78833 -2.518,16.89732c-1.843,10.00076 0.087,14.84004 5.917,14.84004c5.029,0 6.942,-3.22313 8.179,-13.78497c0.298,-2.55025 0.731,-4.8281 0.961,-5.06188c0.23,-0.23378 0.418,-0.9148 0.418,-1.51348c0,-2.90905 1.541,-1.96173 11,6.76442c1.76,1.62326 3.91,3.58702 4.777,4.3646l1.578,1.41285l-0.859,5.23061c-0.472,2.87653 -0.967,6.32836 -1.099,7.67006c-0.132,1.3417 -0.487,3.35426 -0.788,4.47234c-3.149,11.69517 -0.527,18.26036 6.905,17.29068c4.39,-0.57226 5.718,-3.65512 7.315,-16.98168c0.375,-3.12759 0.688,-4.33715 1.259,-4.86164c0.967,-0.8904 0.195,-1.50027 12.647,9.98653c1.834,1.69237 3.994,3.48843 4.8,3.99258c5.074,3.17231 11.609,-2.15079 9.508,-7.74325c-0.674,-1.793 -1.775,-2.96699 -7.678,-8.18845c-9.827,-8.69057 -10.183,-9.42749 -4.902,-10.13087c1.175,-0.15755 2.504,-0.52753 2.953,-0.82433c0.449,-0.2968 1.871,-0.76131 3.16,-1.03372c8.695,-1.83468 12.387,-6.95957 8.839,-12.26743c-2.461,-3.68155 -5.372,-3.88484 -14.615,-1.02254c-1.87,0.57937 -5.47,1.62936 -8,2.33273c-2.53,0.70338 -5.294,1.57142 -6.143,1.92819c-2.165,0.91073 -4.18,0.83958 -4.995,-0.17686c-0.364,-0.45435 -3.632,-3.44777 -7.262,-6.65261c-3.63,-3.20484 -6.844,-6.05189 -7.141,-6.32531c-0.965,-0.88939 -0.166,-2.15689 1.665,-2.64275c10.03,-2.66003 14.994,-4.45303 16.2,-5.84962c4.966,-5.74899 -0.201,-13.46784 -7.699,-11.50306c-5.398,1.41387 -7.253,1.9536 -7.825,2.27378c-0.33,0.18499 -1.59,0.56921 -2.8,0.85381c-1.21,0.2846 -4,1.05812 -6.2,1.71779c-4.831,1.44945 -6.644,1.93429 -7.279,1.94648c-0.476,0.01016 -4.059,-2.8684 -7.121,-5.71951c-7.523,-7.00734 -9.679,-8.0187 -13.258,-6.22469m-110.873,1.38643c-0.953,0.4391 -2.033,1.15163 -2.4,1.58362c-0.572,0.67085 -6.299,5.70325 -10.831,9.51795c-1.361,1.14553 -3.803,1.27462 -5.039,0.26732c-0.22,-0.17991 -1.75,-0.6922 -3.4,-1.13943c-1.649,-0.44723 -4.259,-1.19229 -5.799,-1.65578c-1.54,-0.4635 -3.958,-1.12418 -5.372,-1.46774c-1.415,-0.34457 -2.765,-0.78774 -3,-0.98595c-0.743,-0.62409 -5.526,-1.32137 -7.258,-1.0571c-4.176,0.63629 -6.981,6.75527 -4.732,10.31993c0.963,1.52669 3.03,3.28107 3.888,3.30038c0.399,0.00915 1.569,0.36998 2.6,0.80299c1.031,0.433 2.828,0.98188 3.994,1.21973c1.166,0.23785 2.642,0.70744 3.28,1.04287c0.638,0.33543 1.811,0.60986 2.606,0.60986c2.554,0 4.192,2.09997 2.442,3.13064c-0.508,0.29985 -5.124,4.37273 -6.609,5.83234c-8.503,8.35515 -8.769,8.45272 -16.439,6.00107c-10.556,-3.37458 -17.243,-5.17165 -19.313,-5.19198c-4.847,-0.04574 -7.904,4.75898 -6.225,9.78426c0.701,2.10098 2.553,3.45793 6.338,4.64514c1.87,0.58649 4.48,1.40777 5.8,1.82553c1.32,0.41776 3.12,0.88532 4,1.03982c3.153,0.55396 4.167,2.02068 2.258,3.26583c-0.582,0.38015 -1.598,1.1933 -2.258,1.80723c-0.66,0.61393 -2.82,2.57363 -4.8,4.35443c-10.157,9.13679 -11.222,12.08853 -5.862,16.24375c3.352,2.59802 5.571,1.8977 11.862,-3.74457c13.106,-11.75311 12.021,-10.8749 12.583,-10.18576c0.483,0.59157 0.704,1.67306 1.787,8.75664c1.445,9.45189 1.38,9.22319 3.166,11.21338c1.919,2.13859 3.774,2.75964 6.625,2.21787c4.736,-0.89853 6.403,-5.67072 4.617,-13.22288c-0.317,-1.3417 -0.844,-4.36053 -1.171,-6.70851c-0.327,-2.34798 -0.864,-5.91569 -1.192,-7.92824c-1.222,-7.48507 -1.647,-6.65566 7.389,-14.43143c1.428,-1.22786 2.686,-2.32562 2.796,-2.43946c4.903,-5.0446 6.4,-5.56603 6.4,-2.22804c0,0.95749 0.356,3.53823 0.79,5.73374c0.435,2.19653 0.905,5.09644 1.045,6.44322c0.854,8.21691 10.023,10.7326 13.647,3.74355c1.094,-2.10912 1.103,-2.62953 0.143,-7.96483c-0.427,-2.36831 -1.067,-6.41069 -1.424,-8.98229c-0.357,-2.5716 -0.813,-5.32005 -1.014,-6.10779c-1.643,-6.4483 -1.282,-7.39563 4.813,-12.62013c7.48,-6.41171 8.583,-7.89571 8.314,-11.18898c-0.374,-4.58517 -4.948,-7.34175 -9.045,-5.45219m54.331,19.15178c-3.449,1.38338 -4.085,3.61243 -4.095,14.33995c-0.009,9.92656 0.511,8.91114 -6.982,13.62844c-2.381,1.49925 -9.833,6.34056 -13.021,8.45984c-6.074,4.0373 -7.051,9.87777 -2.174,13.0074c3.501,2.24633 5.599,1.98206 10.479,-1.31832c1.805,-1.22075 3.382,-2.21991 3.503,-2.21991c0.122,0 1.648,-0.97578 3.391,-2.16807c4.991,-3.41524 4.809,-3.75372 4.805,8.94773c-0.004,11.5671 -0.091,12.0367 -2.465,13.30623c-1.69,0.90362 -9.43,5.80998 -10.211,6.47168c-0.346,0.29477 -2.52,1.74421 -4.83,3.22313c-7.148,4.57398 -8.811,7.81135 -6.293,12.24812c2.847,5.01817 6.825,4.6675 15.902,-1.40371c4.625,-3.09303 6.334,-4.03425 7.014,-3.86044l0.899,0.22972l0.049,10.23861c0.055,11.42175 0.097,11.76124 1.681,13.7311c2.665,3.3136 8.337,2.77488 10.485,-0.99408c0.308,-0.54075 0.53,-4.74983 0.663,-12.55813c0.249,-14.61134 -0.338,-13.91406 7.372,-8.76172c2.991,1.99832 5.559,3.63378 5.707,3.63378c0.148,0 0.641,0.34051 1.095,0.75725c4.651,4.26194 12.208,0.40759 11.752,-5.99395c-0.221,-3.10929 -0.924,-3.95396 -6.218,-7.47389c-2.369,-1.5765 -5.349,-3.56872 -6.621,-4.42863c-1.271,-0.85991 -2.409,-1.56329 -2.528,-1.56329c-0.119,0 -1.99,-1.18924 -4.159,-2.64275c-2.169,-1.45351 -4.132,-2.64275 -4.363,-2.64275c-1.581,0 -2.037,-2.94768 -2.037,-13.16901l0,-9.94893l0.9,-0.15043c0.992,-0.16466 3.43,1.09369 6.5,3.3573c7.617,5.6138 10.818,6.74104 14.163,4.98564c3.781,-1.98308 5.001,-5.45524 3.236,-9.20997c-0.997,-2.11928 -1.614,-2.64173 -7.863,-6.64143c-18.796,-12.03263 -16.931,-9.75174 -16.909,-20.68458c0.018,-8.82068 -0.118,-9.56369 -2.089,-11.42886c-1.756,-1.66188 -4.513,-2.1945 -6.738,-1.30308" id="path0"/>
  </g>
  <g id="svg_2">
   <path fill-rule="evenodd" fill="#1c1a1b" d="m201.4,17.864c-5.419,1.161 -5.549,1.509 -5.8,15.493c-0.235,13.136 -0.121,12.823 -3.841,10.479c-5.731,-3.611 -9.217,-5.865 -9.951,-6.437c-6.399,-4.981 -15.324,2.736 -10.697,9.249c0.667,0.94 5.806,4.952 6.341,4.952c0.146,0 1.274,0.658 2.507,1.462c1.232,0.804 3.411,2.213 4.841,3.131c1.43,0.918 3.907,2.515 5.505,3.55c1.598,1.034 3.326,2.041 3.84,2.236c2.085,0.793 2.2,22.821 0.12,22.821c-0.443,0 -5.813,-3.347 -10.975,-6.84c-6.501,-4.4 -12.89,-1.84 -12.89,5.164c0,3.423 1.184,4.389 19.6,16c5.919,3.731 5.489,2.733 5.551,12.876c0.068,11.119 1.415,13.545 7.285,13.12c5.113,-0.37 5.941,-2.396 5.954,-14.577l0.01,-8.458l2.9,-1.92c1.595,-1.056 3.575,-2.335 4.4,-2.842c2.048,-1.26 3.811,-2.382 8.511,-5.412c2.206,-1.423 4.456,-2.818 5,-3.101c6.877,-3.569 5.044,-14.01 -2.46,-14.01c-1.414,0 -5.136,1.618 -5.935,2.581c-0.283,0.341 -0.667,0.619 -0.855,0.619c-0.187,0 -2.386,1.339 -4.885,2.976c-5.315,3.48 -6.547,3.947 -6.744,2.559c-0.072,-0.514 -0.081,-5.567 -0.019,-11.229l0.113,-10.294l2.487,-1.706c3.305,-2.268 6.547,-4.354 13.287,-8.552c8.268,-5.15 9.309,-6.393 8.902,-10.63c-0.554,-5.771 -6.235,-7.743 -12.058,-4.187c-6.953,4.245 -8.456,5.196 -8.644,5.467c-0.212,0.305 -3.417,1.996 -3.784,1.996c-0.119,0 -0.216,-4.726 -0.216,-10.503c0,-11.054 -0.15,-12.344 -1.636,-14.053c-0.681,-0.783 -4.712,-2.578 -4.937,-2.198c-0.015,0.026 -0.387,0.124 -0.827,0.218m92.783,51.688c-4.162,1.891 -5.227,6.818 -3.18,14.716c0.295,1.137 0.658,3.567 0.807,5.4c0.148,1.832 0.517,4.232 0.82,5.332c0.866,3.15 1.286,7.642 0.795,8.515c-0.343,0.611 -6.756,6.587 -9.952,9.274c-0.4,0.336 -1.3,1.125 -2,1.752c-4.015,3.6 -5.073,3.685 -5.073,0.409c0,-0.714 -0.193,-1.805 -0.43,-2.424c-0.236,-0.619 -0.686,-3.19 -1,-5.714c-0.905,-7.277 -1.735,-8.982 -5.066,-10.415c-6.387,-2.748 -10.88,2.729 -9.094,11.083c0.226,1.056 0.667,3.72 0.981,5.92c0.313,2.2 0.934,6.34 1.38,9.2c1.201,7.701 1.538,6.863 -4.981,12.4c-1.295,1.1 -3.615,3.194 -5.156,4.653l-2.801,2.653l0.026,2.931l0.027,2.931l1.896,1.716c2.71,2.454 7.031,2.414 9.218,-0.085c0.22,-0.252 1.66,-1.543 3.2,-2.87c1.54,-1.327 3.7,-3.258 4.8,-4.291c3.326,-3.125 4.283,-3.462 7.4,-2.606c1.43,0.393 3.886,1.064 5.458,1.492c1.573,0.428 3.038,0.888 3.258,1.024c0.219,0.135 1.543,0.504 2.941,0.82c1.399,0.315 4.689,1.21 7.311,1.989c6.171,1.833 7.689,1.578 10.42,-1.746c1.863,-2.267 2.195,-4.701 0.956,-7.011c-1.493,-2.785 -2.697,-3.477 -9.344,-5.365c-11.571,-3.288 -11.52,-3.262 -9.646,-4.986c3.098,-2.851 7.799,-7.01 10.627,-9.404c1.661,-1.405 3.163,-2.8 3.339,-3.1c0.473,-0.806 4.301,-0.685 6.863,0.215c1.19,0.418 2.941,0.89 3.89,1.048c0.95,0.157 2.177,0.514 2.727,0.792c0.55,0.278 1.81,0.637 2.8,0.797c0.99,0.161 2.555,0.632 3.478,1.047c0.923,0.416 2.042,0.756 2.486,0.756c0.444,0 1.652,0.287 2.685,0.637c6.364,2.161 11.605,-2.256 9.86,-8.309c-0.963,-3.34 -4.483,-5.249 -13.564,-7.355c-2.487,-0.577 -6.145,-1.97 -6.145,-2.341c0,-0.282 1.368,-1.602 5.424,-5.232c1.967,-1.76 3.666,-3.291 3.776,-3.402c0.11,-0.111 1.766,-1.61 3.68,-3.331c3.132,-2.817 3.507,-3.306 3.745,-4.895c1.183,-7.885 -6.234,-10.712 -12.628,-4.813c-13.62,12.566 -14.473,13.166 -14.94,10.514c-0.123,-0.7 -0.389,-2.173 -0.592,-3.273c-0.203,-1.1 -0.664,-4.07 -1.025,-6.6c-1.03,-7.221 -2.369,-9.713 -5.766,-10.731c-2.091,-0.626 -2.781,-0.585 -4.691,0.283m-192.116,1.706c-2.196,1.087 -3.584,3.177 -4.063,6.116c-0.206,1.267 -0.468,2.601 -0.581,2.965c-0.114,0.363 -0.469,2.664 -0.789,5.111c-1.008,7.713 -1.602,8.386 -4.768,5.403c-1.136,-1.071 -2.786,-2.553 -3.666,-3.292c-0.88,-0.74 -3.514,-3.086 -5.854,-5.214c-5.937,-5.4 -10.446,-6.222 -13.037,-2.378c-2.711,4.023 -2.005,6.588 3.073,11.174c6.486,5.857 9.666,8.644 10.232,8.965c0.298,0.169 0.924,0.844 1.391,1.499l0.849,1.192l-1.127,0.43c-1.748,0.666 -8.839,2.754 -11.72,3.451c-5.528,1.338 -8.214,4.721 -7.218,9.089c1.129,4.95 5.363,6.433 12.211,4.275c3.146,-0.992 7.045,-2.115 11.2,-3.229c1.54,-0.413 3.52,-1.015 4.4,-1.338c3.436,-1.264 5.445,-1.249 7.206,0.051c4.002,2.956 15.065,13.258 14.869,13.846c-0.135,0.407 -5.198,2.154 -6.373,2.199c-0.661,0.026 -2.259,0.504 -8.302,2.485c-5.555,1.821 -7.53,6.386 -4.648,10.741c2.16,3.264 4.915,3.787 10.848,2.06c7.948,-2.312 14.53,-4.192 18.47,-5.274c3.141,-0.863 3.992,-0.735 5.785,0.871c0.58,0.519 1.75,1.553 2.6,2.298c0.85,0.745 2.355,2.101 3.345,3.014c0.99,0.912 2.874,2.526 4.186,3.586l2.386,1.927l2.775,-0.157c3.957,-0.224 5.85,-2.287 5.852,-6.379l0.001,-2.656l-2.116,-2.144c-1.164,-1.18 -2.74,-2.685 -3.502,-3.345c-0.763,-0.66 -2.89,-2.548 -4.727,-4.196l-3.342,-2.996l0.276,-3.204c0.151,-1.762 0.513,-4.554 0.804,-6.204c0.291,-1.65 0.744,-4.44 1.007,-6.2c0.263,-1.76 0.73,-4.615 1.039,-6.344c1.207,-6.764 0.336,-9.688 -3.409,-11.442c-5.886,-2.757 -9.826,1.017 -10.843,10.386c-0.203,1.87 -0.643,4.444 -0.978,5.72c-0.335,1.275 -0.609,2.738 -0.609,3.251c0,2.363 -2.396,1.256 -7.297,-3.371c-0.576,-0.545 -3.697,-3.367 -8.052,-7.285c-1.89,-1.699 -2.049,-3.406 -0.86,-9.255c0.319,-1.573 0.764,-4.21 0.989,-5.86c0.224,-1.65 0.664,-4.473 0.978,-6.274c0.501,-2.884 0.812,-7.414 0.685,-9.995c-0.17,-3.445 -5.911,-5.887 -9.576,-4.073m60.895,43.848c-0.308,0.207 -0.427,6.012 -0.4,19.58l0.038,19.286l5,4.852c2.75,2.669 7.43,7.203 10.4,10.076c2.97,2.872 8.23,8.006 11.689,11.408c4.283,4.213 6.484,6.111 6.9,5.952c0.787,-0.302 0.936,-37.688 0.156,-39.186c-0.25,-0.481 -1.555,-1.941 -2.9,-3.246c-4.446,-4.313 -18.352,-17.896 -24.066,-23.508c-5.579,-5.479 -5.973,-5.78 -6.817,-5.214m67.601,8.808c-4.64,4.557 -11.938,11.706 -16.217,15.886c-4.279,4.18 -8,8.14 -8.269,8.8c-0.365,0.899 -0.461,5.869 -0.382,19.8l0.105,18.6l0.877,0c0.808,0 5.732,-4.677 30.39,-28.861l3.733,-3.661l0,-19.439l0,-19.439l-0.9,0.014c-0.624,0.009 -3.491,2.558 -9.337,8.3m20.49,39.372c-1.104,0.229 -2.884,1.821 -8.916,7.974c-4.145,4.229 -9.427,9.614 -11.737,11.968c-12.565,12.802 -13.496,13.895 -12.408,14.567c0.803,0.496 37.57,0.253 38.527,-0.255c0.485,-0.257 2.231,-1.849 3.881,-3.537c3.062,-3.133 27.801,-28.502 28.689,-29.419c1.258,-1.3 -0.34,-1.429 -18.641,-1.507c-9.908,-0.042 -18.636,0.052 -19.395,0.209m-135.153,0.942c-0.81,0.824 0.473,2.352 10.401,12.383c5.884,5.947 13.12,13.3 16.078,16.34c2.958,3.041 5.779,5.681 6.267,5.866c0.488,0.186 9.163,0.34 19.276,0.342c21.948,0.004 21.319,0.143 17.23,-3.795c-1.35,-1.3 -2.747,-2.718 -3.103,-3.152c-0.357,-0.433 -4.716,-4.933 -9.686,-10c-4.971,-5.066 -10.912,-11.147 -13.202,-13.512l-4.164,-4.3l-17.643,0c-9.703,0 -18.432,-0.107 -19.398,-0.238c-0.966,-0.131 -1.891,-0.101 -2.056,0.066m-35.288,4.795c-5.299,1.99 -6.23,7.061 -2.358,12.836c0.973,1.451 2.251,3.472 2.839,4.49c0.588,1.018 1.174,1.941 1.303,2.051c1.12,0.958 2.733,4.186 2.401,4.806c-0.404,0.754 -16.798,1.187 -20.788,0.549c-1.836,-0.294 -1.286,0.389 -7.159,-8.871c-7.759,-12.232 -8.908,-13.926 -9.841,-14.51c-3.73,-2.333 -8.882,-0.968 -10.442,2.767c-1.294,3.096 -0.265,6.513 3.629,12.054c0.772,1.098 1.404,2.096 1.404,2.217c0,0.277 1.543,2.506 2.526,3.649c0.407,0.473 0.68,1.283 0.607,1.8l-0.133,0.939l-10.566,0.113c-11.754,0.125 -12.403,0.251 -14.334,2.782c-2.024,2.654 -1.813,5.575 0.582,8.06l1.971,2.045l11.886,0c10.317,0 11.917,0.081 12.122,0.614c0.243,0.633 -1.033,2.903 -5.13,9.128c-1.282,1.947 -2.331,3.702 -2.331,3.9c0,0.197 -0.401,0.759 -0.892,1.25c-1.455,1.455 -1.538,5.819 -0.152,7.913c3.111,4.702 8.863,4.326 12.331,-0.805c1.569,-2.322 6.161,-9.513 10.015,-15.685c1.266,-2.027 2.826,-4.278 3.466,-5.001l1.164,-1.314l10.134,0.006c12.725,0.008 12.43,-0.205 8.295,5.994c-3.407,5.107 -4.707,7.2 -4.954,7.976c-0.143,0.453 -0.422,0.824 -0.619,0.824c-1.774,0 -1.265,6.27 0.684,8.427c3.53,3.907 8.554,3.02 11.924,-2.105c1.057,-1.607 2.255,-3.41 2.663,-4.006c0.407,-0.596 0.741,-1.167 0.741,-1.268c0,-0.102 0.814,-1.414 1.808,-2.917c2.437,-3.681 2.403,-3.628 4.022,-6.131c0.783,-1.21 1.754,-2.83 2.158,-3.6c1.67,-3.185 1.515,-3.142 11.946,-3.278l9.329,-0.122l1.339,-1.462c3.363,-3.671 2.052,-9.453 -2.425,-10.696c-0.867,-0.241 -4.907,-0.449 -8.977,-0.463c-10.439,-0.035 -10.655,-0.098 -12.27,-3.579c-0.285,-0.616 -5.842,-9.205 -8.592,-13.28c-0.846,-1.255 -1.538,-2.442 -1.538,-2.638c0,-0.197 -0.344,-0.669 -0.763,-1.049c-0.42,-0.38 -0.971,-1.191 -1.225,-1.803c-0.904,-2.184 -5.149,-3.603 -7.8,-2.607m274.388,1.325c-1.785,1.109 -8.6,10.616 -8.6,11.997c0,0.196 -0.269,0.58 -0.597,0.853c-0.329,0.273 -1.172,1.51 -1.874,2.749c-0.702,1.239 -1.39,2.343 -1.53,2.453c-0.139,0.11 -0.93,1.306 -1.757,2.657c-2.754,4.502 -1.608,4.143 -13.225,4.143c-9.956,0 -11.417,-0.11 -11.417,-0.857c0,-0.314 2.692,-4.67 6.325,-10.236c3.999,-6.125 4.225,-9.233 0.891,-12.245c-4.451,-4.021 -8.635,-2.311 -13.436,5.492c-1.233,2.005 -3.396,5.446 -4.806,7.646c-1.409,2.2 -2.912,4.642 -3.339,5.427c-0.427,0.784 -1.06,1.662 -1.406,1.949c-0.346,0.287 -0.629,0.748 -0.629,1.024c0,1.381 -1.216,1.598 -10.16,1.811c-10.404,0.248 -11.272,0.495 -12.881,3.669c-1.164,2.298 -1.195,3.292 -0.174,5.569c1.564,3.49 2.34,3.721 13.252,3.951c5.224,0.11 9.571,0.29 9.66,0.4c0.678,0.838 2.442,3.482 3.703,5.551c0.44,0.722 2.24,3.542 4,6.267c1.76,2.725 4.05,6.274 5.088,7.887c4.761,7.396 12.651,7.028 13.912,-0.649c0.42,-2.561 -0.139,-3.923 -4.089,-9.969c-0.831,-1.271 -1.511,-2.424 -1.511,-2.562c0,-0.137 -0.45,-0.839 -1,-1.561c-0.55,-0.721 -1,-1.475 -1,-1.675c0,-0.201 -0.368,-0.698 -0.818,-1.105c-2.403,-2.175 -1.564,-2.375 10.479,-2.49l11.061,-0.107l1.139,1.593c0.626,0.875 1.859,2.778 2.739,4.228c0.88,1.45 2.742,4.382 4.138,6.514c1.396,2.133 2.836,4.397 3.2,5.03c0.364,0.634 0.873,1.518 1.131,1.964c3.955,6.849 11.371,7.411 14.1,1.068c1.453,-3.378 0.578,-5.341 -8.07,-18.111c-1.515,-2.237 -1.351,-2.273 10.353,-2.273c10.652,0 10.682,-0.002 12.374,-0.994c4.525,-2.652 4.269,-9.267 -0.441,-11.413c-1.602,-0.729 -2.625,-0.793 -12.776,-0.793c-8.916,0 -11.074,-0.104 -11.242,-0.542c-0.241,-0.629 0.563,-2.067 4.395,-7.858c5.24,-7.919 5.967,-10.212 4.281,-13.516c-1.717,-3.364 -6.406,-4.822 -9.443,-2.936m-136.588,36.638c-0.542,0.653 -1.017,0.143 20.723,22.25c4.914,4.997 9.213,9.483 9.553,9.968c1.618,2.311 2.252,2.378 22.312,2.381c10.12,0.002 18.649,-0.155 18.953,-0.348c0.825,-0.522 0.741,-0.616 -13.563,-15.227c-7.145,-7.297 -14.286,-14.649 -15.871,-16.339l-2.88,-3.071l-19.361,-0.111c-16.925,-0.097 -19.425,-0.034 -19.866,0.497m-69.212,1c-0.77,0.421 -5.386,4.871 -10.258,9.89c-4.873,5.018 -11.938,12.252 -15.7,16.074c-6.769,6.876 -7.317,7.596 -6.342,8.327c0.934,0.7 36.819,0.69 38.155,-0.011c1.441,-0.756 2.15,-1.44 12.1,-11.676c4.486,-4.615 11.062,-11.36 14.614,-14.99c4.96,-5.069 6.426,-6.801 6.321,-7.467l-0.137,-0.867l-18.677,-0.023c-17.66,-0.021 -18.752,0.02 -20.076,0.743m57.3,10.044l-0.9,0.344l0.01,17.913c0.005,9.852 0.164,18.582 0.354,19.399c0.287,1.236 2.016,3.116 10.291,11.193c5.47,5.338 12.818,12.545 16.329,16.014c4.502,4.448 6.654,6.307 7.3,6.307l0.916,0l0,-18.503c0,-10.176 -0.159,-19.057 -0.353,-19.734c-0.321,-1.117 -4.464,-5.379 -17.853,-18.363c-1.361,-1.32 -5.337,-5.216 -8.834,-8.657c-5.623,-5.532 -6.464,-6.217 -7.26,-5.913m-12.561,2.27c-1.739,1.846 -9.116,9.077 -23.653,23.182c-3.9,3.784 -7.26,7.324 -7.466,7.865c-0.213,0.562 -0.363,8.712 -0.349,18.978c0.014,9.897 -0.092,18.185 -0.235,18.417c-0.144,0.233 0.153,0.694 0.659,1.026c0.897,0.588 1.099,0.428 7.947,-6.282c3.865,-3.787 11.376,-11.136 16.692,-16.331l9.666,-9.446l0,-19.411c0,-19.944 0.003,-19.898 -1.368,-19.898c-0.057,0 -0.909,0.855 -1.893,1.9m61.003,34.739c-2.596,1.28 -3.142,2.289 -3.142,5.801l0,3.176l2.4,2.189c1.32,1.204 3.39,3.118 4.6,4.254c1.21,1.136 3.169,2.797 4.352,3.691l2.153,1.625l-0.262,3.401c-0.258,3.361 -1.208,9.63 -2.518,16.624c-1.843,9.839 0.087,14.6 5.917,14.6c5.029,0 6.942,-3.171 8.179,-13.562c0.298,-2.509 0.731,-4.75 0.961,-4.98c0.23,-0.23 0.418,-0.9 0.418,-1.489c0,-2.862 1.541,-1.93 11,6.655c1.76,1.597 3.91,3.529 4.777,4.294l1.578,1.39l-0.859,5.146c-0.472,2.83 -0.967,6.226 -1.099,7.546c-0.132,1.32 -0.487,3.3 -0.788,4.4c-3.149,11.506 -0.527,17.965 6.905,17.011c4.39,-0.563 5.718,-3.596 7.315,-16.707c0.375,-3.077 0.688,-4.267 1.259,-4.783c0.967,-0.876 0.195,-1.476 12.647,9.825c1.834,1.665 3.994,3.432 4.8,3.928c5.074,3.121 11.609,-2.116 9.508,-7.618c-0.674,-1.764 -1.775,-2.919 -7.678,-8.056c-9.827,-8.55 -10.183,-9.275 -4.902,-9.967c1.175,-0.155 2.504,-0.519 2.953,-0.811c0.449,-0.292 1.871,-0.749 3.16,-1.017c8.695,-1.805 12.387,-6.847 8.839,-12.069c-2.461,-3.622 -5.372,-3.822 -14.615,-1.006c-1.87,0.57 -5.47,1.603 -8,2.295c-2.53,0.692 -5.294,1.546 -6.143,1.897c-2.165,0.896 -4.18,0.826 -4.995,-0.174c-0.364,-0.447 -3.632,-3.392 -7.262,-6.545c-3.63,-3.153 -6.844,-5.954 -7.141,-6.223c-0.965,-0.875 -0.166,-2.122 1.665,-2.6c10.03,-2.617 14.994,-4.381 16.2,-5.755c4.966,-5.656 -0.201,-13.25 -7.699,-11.317c-5.398,1.391 -7.253,1.922 -7.825,2.237c-0.33,0.182 -1.59,0.56 -2.8,0.84c-1.21,0.28 -4,1.041 -6.2,1.69c-4.831,1.426 -6.644,1.903 -7.279,1.915c-0.476,0.01 -4.059,-2.822 -7.121,-5.627c-7.523,-6.894 -9.679,-7.889 -13.258,-6.124m-110.873,1.364c-0.953,0.432 -2.033,1.133 -2.4,1.558c-0.572,0.66 -6.299,5.611 -10.831,9.364c-1.361,1.127 -3.803,1.254 -5.039,0.263c-0.22,-0.177 -1.75,-0.681 -3.4,-1.121c-1.649,-0.44 -4.259,-1.173 -5.799,-1.629c-1.54,-0.456 -3.958,-1.106 -5.372,-1.444c-1.415,-0.339 -2.765,-0.775 -3,-0.97c-0.743,-0.614 -5.526,-1.3 -7.258,-1.04c-4.176,0.626 -6.981,6.646 -4.732,10.153c0.963,1.502 3.03,3.228 3.888,3.247c0.399,0.009 1.569,0.364 2.6,0.79c1.031,0.426 2.828,0.966 3.994,1.2c1.166,0.234 2.642,0.696 3.28,1.026c0.638,0.33 1.811,0.6 2.606,0.6c2.554,0 4.192,2.066 2.442,3.08c-0.508,0.295 -5.124,4.302 -6.609,5.738c-8.503,8.22 -8.769,8.316 -16.439,5.904c-10.556,-3.32 -17.243,-5.088 -19.313,-5.108c-4.847,-0.045 -7.904,4.682 -6.225,9.626c0.701,2.067 2.553,3.402 6.338,4.57c1.87,0.577 4.48,1.385 5.8,1.796c1.32,0.411 3.12,0.871 4,1.023c3.153,0.545 4.167,1.988 2.258,3.213c-0.582,0.374 -1.598,1.174 -2.258,1.778c-0.66,0.604 -2.82,2.532 -4.8,4.284c-10.157,8.989 -11.222,11.893 -5.862,15.981c3.352,2.556 5.571,1.867 11.862,-3.684c13.106,-11.563 12.021,-10.699 12.583,-10.021c0.483,0.582 0.704,1.646 1.787,8.615c1.445,9.299 1.38,9.074 3.166,11.032c1.919,2.104 3.774,2.715 6.625,2.182c4.736,-0.884 6.403,-5.579 4.617,-13.009c-0.317,-1.32 -0.844,-4.29 -1.171,-6.6c-0.327,-2.31 -0.864,-5.82 -1.192,-7.8c-1.222,-7.364 -1.647,-6.548 7.389,-14.198c1.428,-1.208 2.686,-2.288 2.796,-2.4c4.903,-4.963 6.4,-5.476 6.4,-2.192c0,0.942 0.356,3.481 0.79,5.641c0.435,2.161 0.905,5.014 1.045,6.339c0.854,8.084 10.023,10.559 13.647,3.683c1.094,-2.075 1.103,-2.587 0.143,-7.836c-0.427,-2.33 -1.067,-6.307 -1.424,-8.837c-0.357,-2.53 -0.813,-5.234 -1.014,-6.009c-1.643,-6.344 -1.282,-7.276 4.813,-12.416c7.48,-6.308 8.583,-7.768 8.314,-11.008c-0.374,-4.511 -4.948,-7.223 -9.045,-5.364m54.331,18.842c-3.449,1.361 -4.085,3.554 -4.095,14.108c-0.009,9.766 0.511,8.767 -6.982,13.408c-2.381,1.475 -9.833,6.238 -13.021,8.323c-6.074,3.972 -7.051,9.718 -2.174,12.797c3.501,2.21 5.599,1.95 10.479,-1.297c1.805,-1.201 3.382,-2.184 3.503,-2.184c0.122,0 1.648,-0.96 3.391,-2.133c4.991,-3.36 4.809,-3.693 4.805,8.803c-0.004,11.38 -0.091,11.842 -2.465,13.091c-1.69,0.889 -9.43,5.716 -10.211,6.367c-0.346,0.29 -2.52,1.716 -4.83,3.171c-7.148,4.5 -8.811,7.685 -6.293,12.05c2.847,4.937 6.825,4.592 15.902,-1.381c4.625,-3.043 6.334,-3.969 7.014,-3.798l0.899,0.226l0.049,10.073c0.055,11.237 0.097,11.571 1.681,13.509c2.665,3.26 8.337,2.73 10.485,-0.978c0.308,-0.532 0.53,-4.673 0.663,-12.355c0.249,-14.375 -0.338,-13.689 7.372,-8.62c2.991,1.966 5.559,3.575 5.707,3.575c0.148,0 0.641,0.335 1.095,0.745c4.651,4.193 12.208,0.401 11.752,-5.897c-0.221,-3.059 -0.924,-3.89 -6.218,-7.353c-2.369,-1.551 -5.349,-3.511 -6.621,-4.357c-1.271,-0.846 -2.409,-1.538 -2.528,-1.538c-0.119,0 -1.99,-1.17 -4.159,-2.6c-2.169,-1.43 -4.132,-2.6 -4.363,-2.6c-1.581,0 -2.037,-2.9 -2.037,-12.956l0,-9.788l0.9,-0.148c0.992,-0.162 3.43,1.076 6.5,3.303c7.617,5.523 10.818,6.632 14.163,4.905c3.781,-1.951 5.001,-5.367 3.236,-9.061c-0.997,-2.085 -1.614,-2.599 -7.863,-6.534c-18.796,-11.838 -16.931,-9.594 -16.909,-20.35c0.018,-8.678 -0.118,-9.409 -2.089,-11.244c-1.756,-1.635 -4.513,-2.159 -6.738,-1.282" id="svg_1"/>
  </g>
  <g id="svg_4">
   <path fill-rule="evenodd" fill="#1c1a1b" d="m633.4,25.864c-5.419,1.161 -5.549,1.509 -5.8,15.493c-0.235,13.136 -0.121,12.823 -3.841,10.479c-5.731,-3.611 -9.217,-5.865 -9.951,-6.437c-6.399,-4.981 -15.324,2.736 -10.697,9.249c0.667,0.94 5.806,4.952 6.341,4.952c0.146,0 1.274,0.658 2.507,1.462c1.232,0.804 3.411,2.213 4.841,3.131c1.43,0.918 3.907,2.515 5.505,3.55c1.598,1.034 3.326,2.041 3.84,2.236c2.085,0.793 2.2,22.821 0.12,22.821c-0.443,0 -5.813,-3.347 -10.975,-6.84c-6.501,-4.4 -12.89,-1.84 -12.89,5.164c0,3.423 1.184,4.389 19.6,16c5.919,3.731 5.489,2.733 5.551,12.876c0.068,11.119 1.415,13.545 7.285,13.12c5.113,-0.37 5.941,-2.396 5.954,-14.577l0.01,-8.458l2.9,-1.92c1.595,-1.056 3.575,-2.335 4.4,-2.842c2.048,-1.26 3.811,-2.382 8.511,-5.412c2.206,-1.423 4.456,-2.818 5,-3.101c6.877,-3.569 5.044,-14.01 -2.46,-14.01c-1.414,0 -5.136,1.618 -5.935,2.581c-0.283,0.341 -0.667,0.619 -0.855,0.619c-0.187,0 -2.386,1.339 -4.885,2.976c-5.315,3.48 -6.547,3.947 -6.744,2.559c-0.072,-0.514 -0.081,-5.567 -0.019,-11.229l0.113,-10.294l2.487,-1.706c3.305,-2.268 6.547,-4.354 13.287,-8.552c8.268,-5.15 9.309,-6.393 8.902,-10.63c-0.554,-5.771 -6.235,-7.743 -12.058,-4.187c-6.953,4.245 -8.456,5.196 -8.644,5.467c-0.212,0.305 -3.417,1.996 -3.784,1.996c-0.119,0 -0.216,-4.726 -0.216,-10.503c0,-11.054 -0.15,-12.344 -1.636,-14.053c-0.681,-0.783 -4.712,-2.578 -4.937,-2.198c-0.015,0.026 -0.387,0.124 -0.827,0.218m92.783,51.688c-4.162,1.891 -5.227,6.818 -3.18,14.716c0.295,1.137 0.658,3.567 0.807,5.4c0.148,1.832 0.517,4.232 0.82,5.332c0.866,3.15 1.286,7.642 0.795,8.515c-0.343,0.611 -6.756,6.587 -9.952,9.274c-0.4,0.336 -1.3,1.125 -2,1.752c-4.015,3.6 -5.073,3.685 -5.073,0.409c0,-0.714 -0.193,-1.805 -0.43,-2.424c-0.236,-0.619 -0.686,-3.19 -1,-5.714c-0.905,-7.277 -1.735,-8.982 -5.066,-10.415c-6.387,-2.748 -10.88,2.729 -9.094,11.083c0.226,1.056 0.667,3.72 0.981,5.92c0.313,2.2 0.934,6.34 1.38,9.2c1.201,7.701 1.538,6.863 -4.981,12.4c-1.295,1.1 -3.615,3.194 -5.156,4.653l-2.801,2.653l0.026,2.931l0.027,2.931l1.896,1.716c2.71,2.454 7.031,2.414 9.218,-0.085c0.22,-0.252 1.66,-1.543 3.2,-2.87c1.54,-1.327 3.7,-3.258 4.8,-4.291c3.326,-3.125 4.283,-3.462 7.4,-2.606c1.43,0.393 3.886,1.064 5.458,1.492c1.573,0.428 3.038,0.888 3.258,1.024c0.219,0.135 1.543,0.504 2.941,0.82c1.399,0.315 4.689,1.21 7.311,1.989c6.171,1.833 7.689,1.578 10.42,-1.746c1.863,-2.267 2.195,-4.701 0.956,-7.011c-1.493,-2.785 -2.697,-3.477 -9.344,-5.365c-11.571,-3.288 -11.52,-3.262 -9.646,-4.986c3.098,-2.851 7.799,-7.01 10.627,-9.404c1.661,-1.405 3.163,-2.8 3.339,-3.1c0.473,-0.806 4.301,-0.685 6.863,0.215c1.19,0.418 2.941,0.89 3.89,1.048c0.95,0.157 2.177,0.514 2.727,0.792c0.55,0.278 1.81,0.637 2.8,0.797c0.99,0.161 2.555,0.632 3.478,1.047c0.923,0.416 2.042,0.756 2.486,0.756c0.444,0 1.652,0.287 2.685,0.637c6.364,2.161 11.605,-2.256 9.86,-8.309c-0.963,-3.34 -4.483,-5.249 -13.564,-7.355c-2.487,-0.577 -6.145,-1.97 -6.145,-2.341c0,-0.282 1.368,-1.602 5.424,-5.232c1.967,-1.76 3.666,-3.291 3.776,-3.402c0.11,-0.111 1.766,-1.61 3.68,-3.331c3.132,-2.817 3.507,-3.306 3.745,-4.895c1.183,-7.885 -6.234,-10.712 -12.628,-4.813c-13.62,12.566 -14.473,13.166 -14.94,10.514c-0.123,-0.7 -0.389,-2.173 -0.592,-3.273c-0.203,-1.1 -0.664,-4.07 -1.025,-6.6c-1.03,-7.221 -2.369,-9.713 -5.766,-10.731c-2.091,-0.626 -2.781,-0.585 -4.691,0.283m-192.116,1.706c-2.196,1.087 -3.584,3.177 -4.063,6.116c-0.206,1.267 -0.468,2.601 -0.581,2.965c-0.114,0.363 -0.469,2.664 -0.789,5.111c-1.008,7.713 -1.602,8.386 -4.768,5.403c-1.136,-1.071 -2.786,-2.553 -3.666,-3.292c-0.88,-0.74 -3.514,-3.086 -5.854,-5.214c-5.937,-5.4 -10.446,-6.222 -13.037,-2.378c-2.711,4.023 -2.005,6.588 3.073,11.174c6.486,5.857 9.666,8.644 10.232,8.965c0.298,0.169 0.924,0.844 1.391,1.499l0.849,1.192l-1.127,0.43c-1.748,0.666 -8.839,2.754 -11.72,3.451c-5.528,1.338 -8.214,4.721 -7.218,9.089c1.129,4.95 5.363,6.433 12.211,4.275c3.146,-0.992 7.045,-2.115 11.2,-3.229c1.54,-0.413 3.52,-1.015 4.4,-1.338c3.436,-1.264 5.445,-1.249 7.206,0.051c4.002,2.956 15.065,13.258 14.869,13.846c-0.135,0.407 -5.198,2.154 -6.373,2.199c-0.661,0.026 -2.259,0.504 -8.302,2.485c-5.555,1.821 -7.53,6.386 -4.648,10.741c2.16,3.264 4.915,3.787 10.848,2.06c7.948,-2.312 14.53,-4.192 18.47,-5.274c3.141,-0.863 3.992,-0.735 5.785,0.871c0.58,0.519 1.75,1.553 2.6,2.298c0.85,0.745 2.355,2.101 3.345,3.014c0.99,0.912 2.874,2.526 4.186,3.586l2.386,1.927l2.775,-0.157c3.957,-0.224 5.85,-2.287 5.852,-6.379l0.001,-2.656l-2.116,-2.144c-1.164,-1.18 -2.74,-2.685 -3.502,-3.345c-0.763,-0.66 -2.89,-2.548 -4.727,-4.196l-3.342,-2.996l0.276,-3.204c0.151,-1.762 0.513,-4.554 0.804,-6.204c0.291,-1.65 0.744,-4.44 1.007,-6.2c0.263,-1.76 0.73,-4.615 1.039,-6.344c1.207,-6.764 0.336,-9.688 -3.409,-11.442c-5.886,-2.757 -9.826,1.017 -10.843,10.386c-0.203,1.87 -0.643,4.444 -0.978,5.72c-0.335,1.275 -0.609,2.738 -0.609,3.251c0,2.363 -2.396,1.256 -7.297,-3.371c-0.576,-0.545 -3.697,-3.367 -8.052,-7.285c-1.89,-1.699 -2.049,-3.406 -0.86,-9.255c0.319,-1.573 0.764,-4.21 0.989,-5.86c0.224,-1.65 0.664,-4.473 0.978,-6.274c0.501,-2.884 0.812,-7.414 0.685,-9.995c-0.17,-3.445 -5.911,-5.887 -9.576,-4.073m60.895,43.848c-0.308,0.207 -0.427,6.012 -0.4,19.58l0.038,19.286l5,4.852c2.75,2.669 7.43,7.203 10.4,10.076c2.97,2.872 8.23,8.006 11.689,11.408c4.283,4.213 6.484,6.111 6.9,5.952c0.787,-0.302 0.936,-37.688 0.156,-39.186c-0.25,-0.481 -1.555,-1.941 -2.9,-3.246c-4.446,-4.313 -18.352,-17.896 -24.066,-23.508c-5.579,-5.479 -5.973,-5.78 -6.817,-5.214m67.601,8.808c-4.64,4.557 -11.938,11.706 -16.217,15.886c-4.279,4.18 -8,8.14 -8.269,8.8c-0.365,0.899 -0.461,5.869 -0.382,19.8l0.105,18.6l0.877,0c0.808,0 5.732,-4.677 30.39,-28.861l3.733,-3.661l0,-19.439l0,-19.439l-0.9,0.014c-0.624,0.009 -3.491,2.558 -9.337,8.3m20.49,39.372c-1.104,0.229 -2.884,1.821 -8.916,7.974c-4.145,4.229 -9.427,9.614 -11.737,11.968c-12.565,12.802 -13.496,13.895 -12.408,14.567c0.803,0.496 37.57,0.253 38.527,-0.255c0.485,-0.257 2.231,-1.849 3.881,-3.537c3.062,-3.133 27.801,-28.502 28.689,-29.419c1.258,-1.3 -0.34,-1.429 -18.641,-1.507c-9.908,-0.042 -18.636,0.052 -19.395,0.209m-135.153,0.942c-0.81,0.824 0.473,2.352 10.401,12.383c5.884,5.947 13.12,13.3 16.078,16.34c2.958,3.041 5.779,5.681 6.267,5.866c0.488,0.186 9.163,0.34 19.276,0.342c21.948,0.004 21.319,0.143 17.23,-3.795c-1.35,-1.3 -2.747,-2.718 -3.103,-3.152c-0.357,-0.433 -4.716,-4.933 -9.686,-10c-4.971,-5.066 -10.912,-11.147 -13.202,-13.512l-4.164,-4.3l-17.643,0c-9.703,0 -18.432,-0.107 -19.398,-0.238c-0.966,-0.131 -1.891,-0.101 -2.056,0.066m-35.288,4.795c-5.299,1.99 -6.23,7.061 -2.358,12.836c0.973,1.451 2.251,3.472 2.839,4.49c0.588,1.018 1.174,1.941 1.303,2.051c1.12,0.958 2.733,4.186 2.401,4.806c-0.404,0.754 -16.798,1.187 -20.788,0.549c-1.836,-0.294 -1.286,0.389 -7.159,-8.871c-7.759,-12.232 -8.908,-13.926 -9.841,-14.51c-3.73,-2.333 -8.882,-0.968 -10.442,2.767c-1.294,3.096 -0.265,6.513 3.629,12.054c0.772,1.098 1.404,2.096 1.404,2.217c0,0.277 1.543,2.506 2.526,3.649c0.407,0.473 0.68,1.283 0.607,1.8l-0.133,0.939l-10.566,0.113c-11.754,0.125 -12.403,0.251 -14.334,2.782c-2.024,2.654 -1.813,5.575 0.582,8.06l1.971,2.045l11.886,0c10.317,0 11.917,0.081 12.122,0.614c0.243,0.633 -1.033,2.903 -5.13,9.128c-1.282,1.947 -2.331,3.702 -2.331,3.9c0,0.197 -0.401,0.759 -0.892,1.25c-1.455,1.455 -1.538,5.819 -0.152,7.913c3.111,4.702 8.863,4.326 12.331,-0.805c1.569,-2.322 6.161,-9.513 10.015,-15.685c1.266,-2.027 2.826,-4.278 3.466,-5.001l1.164,-1.314l10.134,0.006c12.725,0.008 12.43,-0.205 8.295,5.994c-3.407,5.107 -4.707,7.2 -4.954,7.976c-0.143,0.453 -0.422,0.824 -0.619,0.824c-1.774,0 -1.265,6.27 0.684,8.427c3.53,3.907 8.554,3.02 11.924,-2.105c1.057,-1.607 2.255,-3.41 2.663,-4.006c0.407,-0.596 0.741,-1.167 0.741,-1.268c0,-0.102 0.814,-1.414 1.808,-2.917c2.437,-3.681 2.403,-3.628 4.022,-6.131c0.783,-1.21 1.754,-2.83 2.158,-3.6c1.67,-3.185 1.515,-3.142 11.946,-3.278l9.329,-0.122l1.339,-1.462c3.363,-3.671 2.052,-9.453 -2.425,-10.696c-0.867,-0.241 -4.907,-0.449 -8.977,-0.463c-10.439,-0.035 -10.655,-0.098 -12.27,-3.579c-0.285,-0.616 -5.842,-9.205 -8.592,-13.28c-0.846,-1.255 -1.538,-2.442 -1.538,-2.638c0,-0.197 -0.344,-0.669 -0.763,-1.049c-0.42,-0.38 -0.971,-1.191 -1.225,-1.803c-0.904,-2.184 -5.149,-3.603 -7.8,-2.607m274.388,1.325c-1.785,1.109 -8.6,10.616 -8.6,11.997c0,0.196 -0.269,0.58 -0.597,0.853c-0.329,0.273 -1.172,1.51 -1.874,2.749c-0.702,1.239 -1.39,2.343 -1.53,2.453c-0.139,0.11 -0.93,1.306 -1.757,2.657c-2.754,4.502 -1.608,4.143 -13.225,4.143c-9.956,0 -11.417,-0.11 -11.417,-0.857c0,-0.314 2.692,-4.67 6.325,-10.236c3.999,-6.125 4.225,-9.233 0.891,-12.245c-4.451,-4.021 -8.635,-2.311 -13.436,5.492c-1.233,2.005 -3.396,5.446 -4.806,7.646c-1.409,2.2 -2.912,4.642 -3.339,5.427c-0.427,0.784 -1.06,1.662 -1.406,1.949c-0.346,0.287 -0.629,0.748 -0.629,1.024c0,1.381 -1.216,1.598 -10.16,1.811c-10.404,0.248 -11.272,0.495 -12.881,3.669c-1.164,2.298 -1.195,3.292 -0.174,5.569c1.564,3.49 2.34,3.721 13.252,3.951c5.224,0.11 9.571,0.29 9.66,0.4c0.678,0.838 2.442,3.482 3.703,5.551c0.44,0.722 2.24,3.542 4,6.267c1.76,2.725 4.05,6.274 5.088,7.887c4.761,7.396 12.651,7.028 13.912,-0.649c0.42,-2.561 -0.139,-3.923 -4.089,-9.969c-0.831,-1.271 -1.511,-2.424 -1.511,-2.562c0,-0.137 -0.45,-0.839 -1,-1.561c-0.55,-0.721 -1,-1.475 -1,-1.675c0,-0.201 -0.368,-0.698 -0.818,-1.105c-2.403,-2.175 -1.564,-2.375 10.479,-2.49l11.061,-0.107l1.139,1.593c0.626,0.875 1.859,2.778 2.739,4.228c0.88,1.45 2.742,4.382 4.138,6.514c1.396,2.133 2.836,4.397 3.2,5.03c0.364,0.634 0.873,1.518 1.131,1.964c3.955,6.849 11.371,7.411 14.1,1.068c1.453,-3.378 0.578,-5.341 -8.07,-18.111c-1.515,-2.237 -1.351,-2.273 10.353,-2.273c10.652,0 10.682,-0.002 12.374,-0.994c4.525,-2.652 4.269,-9.267 -0.441,-11.413c-1.602,-0.729 -2.625,-0.793 -12.776,-0.793c-8.916,0 -11.074,-0.104 -11.242,-0.542c-0.241,-0.629 0.563,-2.067 4.395,-7.858c5.24,-7.919 5.967,-10.212 4.281,-13.516c-1.717,-3.364 -6.406,-4.822 -9.443,-2.936m-136.588,36.638c-0.542,0.653 -1.017,0.143 20.723,22.25c4.914,4.997 9.213,9.483 9.553,9.968c1.618,2.311 2.252,2.378 22.312,2.381c10.12,0.002 18.649,-0.155 18.953,-0.348c0.825,-0.522 0.741,-0.616 -13.563,-15.227c-7.145,-7.297 -14.286,-14.649 -15.871,-16.339l-2.88,-3.071l-19.361,-0.111c-16.925,-0.097 -19.425,-0.034 -19.866,0.497m-69.212,1c-0.77,0.421 -5.386,4.871 -10.258,9.89c-4.873,5.018 -11.938,12.252 -15.7,16.074c-6.769,6.876 -7.317,7.596 -6.342,8.327c0.934,0.7 36.819,0.69 38.155,-0.011c1.441,-0.756 2.15,-1.44 12.1,-11.676c4.486,-4.615 11.062,-11.36 14.614,-14.99c4.96,-5.069 6.426,-6.801 6.321,-7.467l-0.137,-0.867l-18.677,-0.023c-17.66,-0.021 -18.752,0.02 -20.076,0.743m57.3,10.044l-0.9,0.344l0.01,17.913c0.005,9.852 0.164,18.582 0.354,19.399c0.287,1.236 2.016,3.116 10.291,11.193c5.47,5.338 12.818,12.545 16.329,16.014c4.502,4.448 6.654,6.307 7.3,6.307l0.916,0l0,-18.503c0,-10.176 -0.159,-19.057 -0.353,-19.734c-0.321,-1.117 -4.464,-5.379 -17.853,-18.363c-1.361,-1.32 -5.337,-5.216 -8.834,-8.657c-5.623,-5.532 -6.464,-6.217 -7.26,-5.913m-12.561,2.27c-1.739,1.846 -9.116,9.077 -23.653,23.182c-3.9,3.784 -7.26,7.324 -7.466,7.865c-0.213,0.562 -0.363,8.712 -0.349,18.978c0.014,9.897 -0.092,18.185 -0.235,18.417c-0.144,0.233 0.153,0.694 0.659,1.026c0.897,0.588 1.099,0.428 7.947,-6.282c3.865,-3.787 11.376,-11.136 16.692,-16.331l9.666,-9.446l0,-19.411c0,-19.944 0.003,-19.898 -1.368,-19.898c-0.057,0 -0.909,0.855 -1.893,1.9m61.003,34.739c-2.596,1.28 -3.142,2.289 -3.142,5.801l0,3.176l2.4,2.189c1.32,1.204 3.39,3.118 4.6,4.254c1.21,1.136 3.169,2.797 4.352,3.691l2.153,1.625l-0.262,3.401c-0.258,3.361 -1.208,9.63 -2.518,16.624c-1.843,9.839 0.087,14.6 5.917,14.6c5.029,0 6.942,-3.171 8.179,-13.562c0.298,-2.509 0.731,-4.75 0.961,-4.98c0.23,-0.23 0.418,-0.9 0.418,-1.489c0,-2.862 1.541,-1.93 11,6.655c1.76,1.597 3.91,3.529 4.777,4.294l1.578,1.39l-0.859,5.146c-0.472,2.83 -0.967,6.226 -1.099,7.546c-0.132,1.32 -0.487,3.3 -0.788,4.4c-3.149,11.506 -0.527,17.965 6.905,17.011c4.39,-0.563 5.718,-3.596 7.315,-16.707c0.375,-3.077 0.688,-4.267 1.259,-4.783c0.967,-0.876 0.195,-1.476 12.647,9.825c1.834,1.665 3.994,3.432 4.8,3.928c5.074,3.121 11.609,-2.116 9.508,-7.618c-0.674,-1.764 -1.775,-2.919 -7.678,-8.056c-9.827,-8.55 -10.183,-9.275 -4.902,-9.967c1.175,-0.155 2.504,-0.519 2.953,-0.811c0.449,-0.292 1.871,-0.749 3.16,-1.017c8.695,-1.805 12.387,-6.847 8.839,-12.069c-2.461,-3.622 -5.372,-3.822 -14.615,-1.006c-1.87,0.57 -5.47,1.603 -8,2.295c-2.53,0.692 -5.294,1.546 -6.143,1.897c-2.165,0.896 -4.18,0.826 -4.995,-0.174c-0.364,-0.447 -3.632,-3.392 -7.262,-6.545c-3.63,-3.153 -6.844,-5.954 -7.141,-6.223c-0.965,-0.875 -0.166,-2.122 1.665,-2.6c10.03,-2.617 14.994,-4.381 16.2,-5.755c4.966,-5.656 -0.201,-13.25 -7.699,-11.317c-5.398,1.391 -7.253,1.922 -7.825,2.237c-0.33,0.182 -1.59,0.56 -2.8,0.84c-1.21,0.28 -4,1.041 -6.2,1.69c-4.831,1.426 -6.644,1.903 -7.279,1.915c-0.476,0.01 -4.059,-2.822 -7.121,-5.627c-7.523,-6.894 -9.679,-7.889 -13.258,-6.124m-110.873,1.364c-0.953,0.432 -2.033,1.133 -2.4,1.558c-0.572,0.66 -6.299,5.611 -10.831,9.364c-1.361,1.127 -3.803,1.254 -5.039,0.263c-0.22,-0.177 -1.75,-0.681 -3.4,-1.121c-1.649,-0.44 -4.259,-1.173 -5.799,-1.629c-1.54,-0.456 -3.958,-1.106 -5.372,-1.444c-1.415,-0.339 -2.765,-0.775 -3,-0.97c-0.743,-0.614 -5.526,-1.3 -7.258,-1.04c-4.176,0.626 -6.981,6.646 -4.732,10.153c0.963,1.502 3.03,3.228 3.888,3.247c0.399,0.009 1.569,0.364 2.6,0.79c1.031,0.426 2.828,0.966 3.994,1.2c1.166,0.234 2.642,0.696 3.28,1.026c0.638,0.33 1.811,0.6 2.606,0.6c2.554,0 4.192,2.066 2.442,3.08c-0.508,0.295 -5.124,4.302 -6.609,5.738c-8.503,8.22 -8.769,8.316 -16.439,5.904c-10.556,-3.32 -17.243,-5.088 -19.313,-5.108c-4.847,-0.045 -7.904,4.682 -6.225,9.626c0.701,2.067 2.553,3.402 6.338,4.57c1.87,0.577 4.48,1.385 5.8,1.796c1.32,0.411 3.12,0.871 4,1.023c3.153,0.545 4.167,1.988 2.258,3.213c-0.582,0.374 -1.598,1.174 -2.258,1.778c-0.66,0.604 -2.82,2.532 -4.8,4.284c-10.157,8.989 -11.222,11.893 -5.862,15.981c3.352,2.556 5.571,1.867 11.862,-3.684c13.106,-11.563 12.021,-10.699 12.583,-10.021c0.483,0.582 0.704,1.646 1.787,8.615c1.445,9.299 1.38,9.074 3.166,11.032c1.919,2.104 3.774,2.715 6.625,2.182c4.736,-0.884 6.403,-5.579 4.617,-13.009c-0.317,-1.32 -0.844,-4.29 -1.171,-6.6c-0.327,-2.31 -0.864,-5.82 -1.192,-7.8c-1.222,-7.364 -1.647,-6.548 7.389,-14.198c1.428,-1.208 2.686,-2.288 2.796,-2.4c4.903,-4.963 6.4,-5.476 6.4,-2.192c0,0.942 0.356,3.481 0.79,5.641c0.435,2.161 0.905,5.014 1.045,6.339c0.854,8.084 10.023,10.559 13.647,3.683c1.094,-2.075 1.103,-2.587 0.143,-7.836c-0.427,-2.33 -1.067,-6.307 -1.424,-8.837c-0.357,-2.53 -0.813,-5.234 -1.014,-6.009c-1.643,-6.344 -1.282,-7.276 4.813,-12.416c7.48,-6.308 8.583,-7.768 8.314,-11.008c-0.374,-4.511 -4.948,-7.223 -9.045,-5.364m54.331,18.842c-3.449,1.361 -4.085,3.554 -4.095,14.108c-0.009,9.766 0.511,8.767 -6.982,13.408c-2.381,1.475 -9.833,6.238 -13.021,8.323c-6.074,3.972 -7.051,9.718 -2.174,12.797c3.501,2.21 5.599,1.95 10.479,-1.297c1.805,-1.201 3.382,-2.184 3.503,-2.184c0.122,0 1.648,-0.96 3.391,-2.133c4.991,-3.36 4.809,-3.693 4.805,8.803c-0.004,11.38 -0.091,11.842 -2.465,13.091c-1.69,0.889 -9.43,5.716 -10.211,6.367c-0.346,0.29 -2.52,1.716 -4.83,3.171c-7.148,4.5 -8.811,7.685 -6.293,12.05c2.847,4.937 6.825,4.592 15.902,-1.381c4.625,-3.043 6.334,-3.969 7.014,-3.798l0.899,0.226l0.049,10.073c0.055,11.237 0.097,11.571 1.681,13.509c2.665,3.26 8.337,2.73 10.485,-0.978c0.308,-0.532 0.53,-4.673 0.663,-12.355c0.249,-14.375 -0.338,-13.689 7.372,-8.62c2.991,1.966 5.559,3.575 5.707,3.575c0.148,0 0.641,0.335 1.095,0.745c4.651,4.193 12.208,0.401 11.752,-5.897c-0.221,-3.059 -0.924,-3.89 -6.218,-7.353c-2.369,-1.551 -5.349,-3.511 -6.621,-4.357c-1.271,-0.846 -2.409,-1.538 -2.528,-1.538c-0.119,0 -1.99,-1.17 -4.159,-2.6c-2.169,-1.43 -4.132,-2.6 -4.363,-2.6c-1.581,0 -2.037,-2.9 -2.037,-12.956l0,-9.788l0.9,-0.148c0.992,-0.162 3.43,1.076 6.5,3.303c7.617,5.523 10.818,6.632 14.163,4.905c3.781,-1.951 5.001,-5.367 3.236,-9.061c-0.997,-2.085 -1.614,-2.599 -7.863,-6.534c-18.796,-11.838 -16.931,-9.594 -16.909,-20.35c0.018,-8.678 -0.118,-9.409 -2.089,-11.244c-1.756,-1.635 -4.513,-2.159 -6.738,-1.282" id="svg_3"/>
  </g>
 </g>
</svg>